<?xml version="1.0" encoding="UTF-8" ?>
<!DOCTYPE svg PUBLIC "-//W3C//DTD SVG 1.1//EN" "http://www.w3.org/Graphics/SVG/1.1/DTD/svg11.dtd">
<svg width="30" viewBox="0 0 1100 868" version="1.1" xmlns="http://www.w3.org/2000/svg">
<path fill="#990000" opacity="1.00" d=" M 645.97 57.15 C 648.56 20.10 697.32 -1.26 728.27 15.89 C 711.83 22.63 697.68 37.24 696.48 55.64 C 694.60 85.86 710.58 113.27 725.91 138.10 C 761.03 191.32 807.38 235.96 855.49 277.32 C 850.32 285.53 844.38 293.21 838.70 301.06 C 834.96 298.92 831.36 296.56 827.75 294.25 C 785.37 262.55 746.09 226.55 711.78 186.23 C 688.01 157.93 664.86 127.90 652.15 92.84 C 647.63 81.51 645.41 69.36 645.97 57.15 Z" />
<path fill="#ec1c24" opacity="1.00" d=" M 696.48 55.64 C 697.68 37.24 711.83 22.63 728.27 15.89 C 754.51 27.31 770.85 53.73 783.85 78.13 C 791.67 92.92 797.84 108.51 803.93 124.07 C 811.39 145.42 817.29 167.27 822.73 189.18 C 824.86 171.24 829.01 153.53 834.21 136.24 C 837.37 124.29 841.05 112.48 845.89 101.10 C 875.15 74.64 908.76 53.73 942.08 32.84 C 949.68 39.12 956.12 48.06 955.93 58.34 C 958.82 90.84 945.06 121.27 931.69 149.99 C 925.54 161.52 920.76 173.74 914.07 185.00 C 895.95 216.62 876.66 247.63 855.49 277.32 C 807.38 235.96 761.03 191.32 725.91 138.10 C 710.58 113.27 694.60 85.86 696.48 55.64 Z" />
<path fill="#990000" opacity="1.00" d=" M 896.11 30.10 C 910.52 22.17 928.58 23.67 942.08 32.84 C 908.76 53.73 875.15 74.64 845.89 101.10 C 855.92 73.85 870.05 45.14 896.11 30.10 Z" />
<path fill="#000000" opacity="1.00" d=" M 291.22 190.22 C 384.40 99.19 516.75 53.40 645.97 57.15 C 645.41 69.36 647.63 81.51 652.15 92.84 C 552.61 89.43 451.12 115.90 368.92 172.90 C 364.85 175.89 355.46 179.67 361.34 185.59 C 412.53 265.43 500.74 311.38 556.98 387.02 C 583.56 422.63 601.59 466.37 600.41 511.27 C 592.94 455.89 556.85 409.82 517.48 372.53 C 481.60 338.03 440.79 309.30 402.98 277.04 C 377.77 256.09 352.83 232.62 340.26 201.70 C 333.80 225.51 334.60 251.56 344.76 274.23 C 369.02 329.03 414.59 370.80 461.24 406.80 C 408.16 393.00 361.51 358.24 329.91 313.74 C 309.54 332.38 322.44 363.12 340.74 378.24 C 385.39 418.25 441.66 442.16 496.96 463.61 C 443.87 462.01 389.52 447.35 346.03 415.92 C 343.81 444.94 354.97 475.59 378.73 493.29 C 416.88 521.52 466.55 523.07 511.66 527.59 C 461.63 530.91 405.82 534.73 361.71 506.28 C 324.30 481.17 317.40 432.17 321.95 390.66 C 307.57 375.05 294.09 355.67 296.90 333.22 C 296.06 316.39 306.63 302.08 317.34 290.31 C 322.07 286.18 317.35 279.56 316.28 274.79 C 309.89 258.19 311.03 240.21 310.81 222.78 C 245.07 287.39 208.42 381.34 216.24 473.63 C 221.44 512.48 230.28 551.81 249.91 586.12 C 289.87 667.61 364.36 729.02 447.23 763.78 C 526.05 797.15 614.14 807.98 698.81 796.88 C 828.80 779.89 956.52 706.04 1017.31 587.01 C 1051.06 521.72 1060.23 444.00 1042.31 372.73 C 1023.32 297.64 975.74 231.16 914.07 185.00 C 920.76 173.74 925.54 161.52 931.69 149.99 C 933.83 155.50 939.67 158.39 943.94 162.10 C 1025.79 227.13 1083.35 326.37 1087.03 431.95 C 1093.11 538.15 1043.31 642.77 965.39 713.39 C 806.18 858.54 550.88 876.92 368.99 763.96 C 362.12 758.03 354.21 764.42 347.90 767.94 C 314.06 784.72 280.64 802.32 246.87 819.12 C 241.18 806.99 234.15 795.51 228.77 783.27 C 260.70 766.61 293.33 751.12 324.88 733.90 C 311.93 722.30 297.67 709.82 284.96 698.06 C 246.99 716.35 209.56 736.16 171.81 755.15 C 166.30 742.94 159.27 731.48 153.67 719.33 C 187.22 702.34 220.60 684.95 254.27 668.25 C 255.39 667.30 257.99 666.26 256.59 664.50 C 218.99 617.35 193.77 560.46 183.83 501.02 C 158.44 523.15 132.36 545.51 101.23 559.21 C 80.85 568.86 55.22 573.00 34.94 561.05 C 19.43 553.28 5.11 537.29 9.29 518.59 C 16.39 500.17 34.77 490.93 51.16 482.12 C 87.51 465.72 126.20 455.31 165.06 446.86 C 122.60 436.75 77.77 422.67 47.35 389.64 C 27.45 368.34 37.54 331.47 63.39 320.29 C 79.16 315.63 94.63 323.60 108.14 330.86 C 136.30 348.68 160.47 372.24 182.28 397.24 C 195.64 318.99 234.61 245.86 291.22 190.22 M 71.50 337.38 C 55.65 334.98 54.31 354.81 67.84 359.26 C 79.68 364.50 99.79 372.60 108.44 359.14 C 109.07 341.72 84.71 337.38 71.50 337.38 M 57.78 498.53 C 46.24 501.70 23.57 510.45 30.11 525.77 C 46.52 535.05 68.19 523.88 77.79 509.37 C 80.63 497.97 65.34 495.98 57.78 498.53 Z" />
<path fill="#000000" opacity="1.00" d=" M 783.85 78.13 C 805.00 84.45 824.96 94.44 845.89 101.10 C 841.05 112.48 837.37 124.29 834.21 136.24 C 824.05 132.33 814.47 126.93 803.93 124.07 C 797.84 108.51 791.67 92.92 783.85 78.13 Z" />
<path fill="#ffffff" opacity="1.00" d=" M 368.92 172.90 C 451.12 115.90 552.61 89.43 652.15 92.84 C 664.86 127.90 688.01 157.93 711.78 186.23 C 686.83 167.36 660.61 149.08 630.53 139.46 C 608.41 133.13 582.43 130.00 562.22 143.31 C 555.84 146.95 556.98 156.65 561.86 161.06 C 576.92 176.47 597.03 185.32 615.89 195.13 C 685.98 229.30 759.64 256.02 827.75 294.25 C 831.36 296.56 834.96 298.92 838.70 301.06 C 844.38 293.21 850.32 285.53 855.49 277.32 C 876.66 247.63 895.95 216.62 914.07 185.00 C 975.74 231.16 1023.32 297.64 1042.31 372.73 C 1060.23 444.00 1051.06 521.72 1017.31 587.01 C 955.69 643.49 881.13 686.75 800.03 708.22 C 774.96 711.98 750.31 700.27 725.31 703.93 C 711.43 705.99 711.78 725.66 698.11 727.92 C 661.15 729.56 626.61 709.76 589.60 713.40 C 579.55 715.50 573.59 727.05 562.56 725.98 C 528.09 728.89 510.12 686.11 475.87 687.91 C 456.42 687.22 437.29 700.96 418.09 692.11 C 394.70 679.64 381.64 654.13 358.83 640.89 C 346.54 633.75 333.92 647.26 321.55 642.58 C 294.99 627.42 272.92 605.90 249.91 586.12 C 230.28 551.81 221.44 512.48 216.24 473.63 C 208.42 381.34 245.07 287.39 310.81 222.78 C 311.03 240.21 309.89 258.19 316.28 274.79 C 317.35 279.56 322.07 286.18 317.34 290.31 C 306.63 302.08 296.06 316.39 296.90 333.22 C 294.09 355.67 307.57 375.05 321.95 390.66 C 317.40 432.17 324.30 481.17 361.71 506.28 C 405.82 534.73 461.63 530.91 511.66 527.59 C 466.55 523.07 416.88 521.52 378.73 493.29 C 354.97 475.59 343.81 444.94 346.03 415.92 C 389.52 447.35 443.87 462.01 496.96 463.61 C 441.66 442.16 385.39 418.25 340.74 378.24 C 322.44 363.12 309.54 332.38 329.91 313.74 C 361.51 358.24 408.16 393.00 461.24 406.80 C 414.59 370.80 369.02 329.03 344.76 274.23 C 334.60 251.56 333.80 225.51 340.26 201.70 C 352.83 232.62 377.77 256.09 402.98 277.04 C 440.79 309.30 481.60 338.03 517.48 372.53 C 556.85 409.82 592.94 455.89 600.41 511.27 C 601.59 466.37 583.56 422.63 556.98 387.02 C 500.74 311.38 412.53 265.43 361.34 185.59 C 355.46 179.67 364.85 175.89 368.92 172.90 M 763.34 441.29 C 758.98 458.08 760.06 476.16 765.01 492.73 C 766.57 516.67 780.39 548.86 807.91 551.94 C 839.32 546.95 849.22 510.12 853.12 483.11 C 855.59 447.35 852.88 399.01 818.31 378.61 C 783.42 366.89 764.92 413.68 763.34 441.29 M 931.65 382.38 C 914.61 389.08 903.20 408.99 901.87 426.01 C 895.35 439.91 894.66 456.03 897.05 470.98 C 898.71 495.52 906.66 526.89 931.91 537.19 C 948.49 542.41 963.31 529.07 970.33 515.33 C 986.05 484.01 986.40 446.12 974.44 413.54 C 968.18 396.20 952.46 376.35 931.65 382.38 M 880.16 540.11 C 864.99 573.69 849.55 607.19 835.09 641.05 C 884.18 624.55 933.30 607.79 982.27 590.79 C 948.73 573.16 914.33 556.64 880.16 540.11 M 704.69 552.38 C 687.30 554.88 664.71 568.98 672.62 589.29 C 689.51 619.65 744.53 619.23 760.24 588.00 C 766.28 558.26 727.21 547.77 704.69 552.38 Z" />
<path fill="#ffffff" opacity="1.00" d=" M 803.93 124.07 C 814.47 126.93 824.05 132.33 834.21 136.24 C 829.01 153.53 824.86 171.24 822.73 189.18 C 817.29 167.27 811.39 145.42 803.93 124.07 Z" />
<path fill="#bbbdbf" opacity="1.00" d=" M 562.22 143.31 C 582.43 130.00 608.41 133.13 630.53 139.46 C 660.61 149.08 686.83 167.36 711.78 186.23 C 746.09 226.55 785.37 262.55 827.75 294.25 C 759.64 256.02 685.98 229.30 615.89 195.13 C 597.03 185.32 576.92 176.47 561.86 161.06 C 556.98 156.65 555.84 146.95 562.22 143.31 Z" />
<path fill="#ffffff" opacity="1.00" d=" M 71.50 337.38 C 84.71 337.38 109.07 341.72 108.44 359.14 C 99.79 372.60 79.68 364.50 67.84 359.26 C 54.31 354.81 55.65 334.98 71.50 337.38 Z" />
<path fill="#d0d2d3" opacity="1.00" d=" M 763.34 441.29 C 764.92 413.68 783.42 366.89 818.31 378.61 C 852.88 399.01 855.59 447.35 853.12 483.11 C 849.22 510.12 839.32 546.95 807.91 551.94 C 780.39 548.86 766.57 516.67 765.01 492.73 C 769.22 508.10 778.19 525.28 794.80 529.58 C 813.42 533.07 826.44 515.48 832.31 500.30 C 842.16 472.00 841.16 437.88 822.95 413.11 C 815.75 402.59 800.62 395.43 788.72 402.63 C 773.78 409.74 768.27 426.68 763.34 441.29 Z" />
<path fill="#d0d2d3" opacity="1.00" d=" M 931.65 382.38 C 952.46 376.35 968.18 396.20 974.44 413.54 C 986.40 446.12 986.05 484.01 970.33 515.33 C 963.31 529.07 948.49 542.41 931.91 537.19 C 906.66 526.89 898.71 495.52 897.05 470.98 C 900.77 487.56 906.58 508.81 925.16 513.84 C 942.03 518.18 954.01 501.87 959.15 488.19 C 968.43 460.90 967.14 425.11 944.13 404.87 C 927.06 391.11 906.35 408.46 901.87 426.01 C 903.20 408.99 914.61 389.08 931.65 382.38 Z" />
<path fill="#000000" opacity="1.00" d=" M 788.72 402.63 C 800.62 395.43 815.75 402.59 822.95 413.11 C 841.16 437.88 842.16 472.00 832.31 500.30 C 826.44 515.48 813.42 533.07 794.80 529.58 C 778.19 525.28 769.22 508.10 765.01 492.73 C 760.06 476.16 758.98 458.08 763.34 441.29 C 768.27 426.68 773.78 409.74 788.72 402.63 M 805.60 427.32 C 791.20 436.88 790.23 463.66 805.65 472.68 C 828.60 474.79 829.40 426.06 805.60 427.32 Z" />
<path fill="#000000" opacity="1.00" d=" M 901.87 426.01 C 906.35 408.46 927.06 391.11 944.13 404.87 C 967.14 425.11 968.43 460.90 959.15 488.19 C 954.01 501.87 942.03 518.18 925.16 513.84 C 906.58 508.81 900.77 487.56 897.05 470.98 C 894.66 456.03 895.35 439.91 901.87 426.01 M 938.98 426.31 C 928.23 435.14 929.70 452.90 939.37 462.03 C 958.90 464.26 959.22 422.20 938.98 426.31 Z" />
<path fill="#ffffff" opacity="1.00" d=" M 938.98 426.31 C 959.22 422.20 958.90 464.26 939.37 462.03 C 929.70 452.90 928.23 435.14 938.98 426.31 Z" />
<path fill="#ffffff" opacity="1.00" d=" M 805.60 427.32 C 829.40 426.06 828.60 474.79 805.65 472.68 C 790.23 463.66 791.20 436.88 805.60 427.32 Z" />
<path fill="#ffffff" opacity="1.00" d=" M 57.78 498.53 C 65.34 495.98 80.63 497.97 77.79 509.37 C 68.19 523.88 46.52 535.05 30.11 525.77 C 23.57 510.45 46.24 501.70 57.78 498.53 Z" />
<path fill="#faaf40" opacity="1.00" d=" M 880.16 540.11 C 914.33 556.64 948.73 573.16 982.27 590.79 C 933.30 607.79 884.18 624.55 835.09 641.05 C 849.55 607.19 864.99 573.69 880.16 540.11 Z" />
<path fill="#efb7c0" opacity="1.00" d=" M 704.69 552.38 C 727.21 547.77 766.28 558.26 760.24 588.00 C 744.53 619.23 689.51 619.65 672.62 589.29 C 664.71 568.98 687.30 554.88 704.69 552.38 Z" />
<path fill="#bbbdbf" opacity="1.00" d=" M 249.91 586.12 C 272.92 605.90 294.99 627.42 321.55 642.58 C 333.92 647.26 346.54 633.75 358.83 640.89 C 381.64 654.13 394.70 679.64 418.09 692.11 C 437.29 700.96 456.42 687.22 475.87 687.91 C 510.12 686.11 528.09 728.89 562.56 725.98 C 573.59 727.05 579.55 715.50 589.60 713.40 C 626.61 709.76 661.15 729.56 698.11 727.92 C 711.78 725.66 711.43 705.99 725.31 703.93 C 750.31 700.27 774.96 711.98 800.03 708.22 C 881.13 686.75 955.69 643.49 1017.31 587.01 C 956.52 706.04 828.80 779.89 698.81 796.88 C 614.14 807.98 526.05 797.15 447.23 763.78 C 364.36 729.02 289.87 667.61 249.91 586.12 Z" />
</svg>

