<?xml version="1.0" encoding="UTF-8" ?>
<!DOCTYPE svg PUBLIC "-//W3C//DTD SVG 1.1//EN" "http://www.w3.org/Graphics/SVG/1.1/DTD/svg11.dtd">
<svg width="35" viewBox="0 0 760 603" version="1.1" xmlns="http://www.w3.org/2000/svg">
<path fill="#000000" opacity="1.00" d=" M 308.11 76.30 C 309.91 42.79 340.33 13.51 374.06 13.99 C 417.35 13.97 460.64 14.06 503.93 13.94 C 537.19 14.70 566.59 44.09 568.00 77.21 C 568.18 89.81 567.88 102.41 568.01 115.01 C 604.00 115.01 639.99 114.97 675.99 115.01 C 676.03 128.33 676.03 141.66 675.98 154.98 C 646.62 155.09 617.26 154.90 587.91 155.03 C 601.11 165.86 613.96 177.19 624.44 190.73 C 643.13 187.25 660.65 177.34 679.60 174.10 C 686.15 191.84 695.51 208.61 701.02 226.68 C 694.90 228.96 688.55 230.71 682.79 233.84 C 707.40 266.26 712.92 309.96 704.00 348.96 C 719.61 348.68 735.09 346.04 750.72 346.06 C 756.63 362.60 754.44 381.41 743.07 395.05 C 720.29 420.11 685.55 425.55 654.63 433.62 C 687.55 457.65 692.18 508.59 670.06 541.21 C 646.85 524.60 623.77 507.62 602.86 488.13 C 602.03 487.11 600.71 487.06 599.65 487.71 C 549.38 518.29 489.51 530.02 431.34 531.19 C 419.97 552.90 409.09 575.98 409.63 601.11 C 379.79 590.36 361.67 559.37 360.50 528.53 C 342.55 527.57 325.11 522.87 307.53 520.09 C 291.96 544.26 278.64 571.72 278.63 601.11 C 248.74 590.47 231.23 559.55 229.20 529.07 C 208.99 516.29 198.65 491.86 203.85 468.46 C 175.67 442.32 156.03 406.33 151.91 367.84 C 109.47 371.20 63.57 374.41 24.33 354.67 C 16.53 350.66 7.08 343.65 9.24 333.66 C 12.74 328.14 20.30 326.89 26.14 325.13 C 60.08 317.96 94.92 317.48 129.30 313.72 C 99.88 289.08 63.03 272.79 36.42 244.48 C 24.97 231.40 46.85 222.99 57.09 224.90 C 97.59 227.23 134.60 247.30 168.02 268.96 C 195.76 209.16 248.48 163.97 307.51 136.47 C 308.73 116.43 307.48 96.35 308.11 76.30 M 373.63 35.49 C 351.27 36.24 331.83 54.86 330.00 77.05 C 329.94 86.36 329.94 95.67 330.01 104.99 C 329.94 114.65 329.96 124.32 330.02 133.99 C 402.01 134.01 474.00 134.01 545.99 133.99 C 546.04 124.32 546.04 114.65 545.98 104.99 C 546.01 95.62 546.01 86.26 546.17 76.90 C 544.28 54.06 523.56 35.51 500.77 35.19 C 458.40 35.05 415.98 34.48 373.63 35.49 M 307.09 160.21 C 266.94 180.91 229.90 209.68 204.68 247.55 C 175.71 287.39 162.62 341.32 178.11 388.91 C 181.44 404.76 190.47 418.74 199.19 432.10 C 201.83 425.32 205.06 418.78 209.87 413.23 C 239.64 382.39 287.43 375.85 313.14 340.15 C 301.49 378.17 261.59 395.30 233.82 419.81 C 224.71 428.29 212.35 440.73 216.52 454.01 C 235.34 428.25 267.09 415.53 296.34 405.31 C 274.94 424.03 248.60 438.61 233.99 463.95 C 226.05 475.92 226.96 494.96 238.65 504.12 C 246.68 456.84 291.78 428.49 331.25 408.22 C 302.61 437.33 270.89 467.48 258.79 507.76 C 252.49 525.99 253.87 546.39 261.35 564.06 C 274.66 490.85 348.50 449.35 369.34 379.40 C 375.90 363.43 372.05 346.10 371.44 329.55 C 378.58 350.91 377.17 374.20 372.96 396.02 L 372.10 396.19 C 371.61 400.28 370.46 404.24 368.86 408.03 C 363.59 425.11 354.65 440.74 346.80 456.72 C 338.03 471.55 328.33 485.81 319.79 500.77 C 407.73 518.38 505.26 516.26 585.28 471.69 C 581.33 466.14 576.87 460.99 572.29 455.96 C 563.53 444.30 554.54 431.80 552.68 416.90 C 543.68 422.39 533.67 425.85 524.22 430.18 C 479.61 440.88 434.24 411.09 417.98 370.02 C 395.94 322.78 405.04 263.60 440.07 225.00 C 438.39 224.41 436.72 223.82 435.04 223.26 C 428.26 221.49 421.66 219.07 415.04 216.82 C 420.62 198.86 427.77 181.40 432.18 163.07 C 475.64 176.96 518.77 191.84 562.20 205.80 C 573.03 212.08 584.96 205.04 595.37 201.14 C 598.11 200.90 601.53 200.63 603.15 198.07 C 588.62 181.66 570.77 168.31 552.15 156.85 C 547.94 153.77 542.40 155.55 537.62 155.20 C 530.64 154.24 523.53 155.33 516.53 155.30 C 453.09 154.56 389.59 155.26 326.13 154.96 C 319.19 154.05 312.79 156.59 307.09 160.21 M 459.01 238.08 C 423.43 270.31 418.93 328.24 441.82 369.19 C 456.15 396.98 489.75 418.69 521.15 407.04 C 545.75 401.88 560.11 379.33 572.79 359.67 C 576.04 364.84 579.18 370.07 582.35 375.29 C 613.25 364.31 645.39 356.80 678.03 353.34 C 682.46 352.92 681.24 346.55 682.88 343.82 C 690.99 308.71 685.55 268.06 660.56 240.73 C 631.70 249.01 603.65 259.82 574.68 267.78 C 537.75 259.17 502.18 244.63 465.92 233.16 C 462.88 232.97 460.35 235.56 459.01 238.08 M 593.39 390.38 C 584.30 394.51 573.11 398.54 569.28 408.54 C 568.12 421.90 577.04 433.35 584.54 443.47 C 606.86 471.46 634.75 494.65 663.77 515.38 C 666.56 501.89 668.40 486.73 663.31 473.57 C 653.44 443.17 619.92 433.87 594.60 420.22 C 632.55 418.90 672.05 416.18 707.13 400.13 C 721.02 393.29 737.84 381.61 736.92 364.18 C 688.60 368.62 639.19 372.94 593.39 390.38 M 385.95 531.16 C 385.69 542.46 387.94 553.68 392.35 564.06 C 393.95 552.58 398.66 541.99 402.08 531.02 C 396.70 531.01 391.32 531.05 385.95 531.16 Z" />
<path fill="#ed7c31" opacity="1.00" d=" M 373.63 35.49 C 415.98 34.48 458.40 35.05 500.77 35.19 C 523.56 35.51 544.28 54.06 546.17 76.90 C 540.56 71.53 535.07 65.92 528.40 61.87 C 530.89 52.51 521.20 48.62 513.92 46.82 C 499.55 45.06 483.04 44.58 471.68 55.16 C 438.22 55.01 404.76 54.72 371.32 55.20 C 354.72 55.14 340.97 65.66 330.00 77.05 C 331.83 54.86 351.27 36.24 373.63 35.49 Z" />
<path fill="#ffffff" opacity="1.00" d=" M 471.68 55.16 C 483.04 44.58 499.55 45.06 513.92 46.82 C 521.20 48.62 530.89 52.51 528.40 61.87 C 512.76 74.02 478.69 76.36 471.68 55.16 Z" />
<path fill="#d6562b" opacity="1.00" d=" M 330.00 77.05 C 340.97 65.66 354.72 55.14 371.32 55.20 C 404.76 54.72 438.22 55.01 471.68 55.16 C 478.69 76.36 512.76 74.02 528.40 61.87 C 535.07 65.92 540.56 71.53 546.17 76.90 C 546.01 86.26 546.01 95.62 545.98 104.99 C 473.99 105.01 402.00 105.01 330.01 104.99 C 329.94 95.67 329.94 86.36 330.00 77.05 Z" />
<path fill="#b55232" opacity="1.00" d=" M 330.01 104.99 C 402.00 105.01 473.99 105.01 545.98 104.99 C 546.04 114.65 546.04 124.32 545.99 133.99 C 474.00 134.01 402.01 134.01 330.02 133.99 C 329.96 124.32 329.94 114.65 330.01 104.99 Z" />
<path fill="#e5d3bd" opacity="1.00" d=" M 307.09 160.21 C 312.79 156.59 319.19 154.05 326.13 154.96 C 389.59 155.26 453.09 154.56 516.53 155.30 C 536.48 160.38 555.45 168.36 574.09 176.93 C 562.97 168.07 550.25 161.58 537.62 155.20 C 542.40 155.55 547.94 153.77 552.15 156.85 C 570.77 168.31 588.62 181.66 603.15 198.07 C 601.53 200.63 598.11 200.90 595.37 201.14 C 541.31 162.53 472.13 150.00 406.94 157.96 C 332.48 167.39 263.33 201.88 204.68 247.55 C 229.90 209.68 266.94 180.91 307.09 160.21 M 312.86 161.98 C 320.30 160.54 327.60 158.43 334.93 156.49 C 327.07 155.08 319.34 157.71 312.86 161.98 Z" />
<path fill="#ffffff" opacity="1.00" d=" M 516.53 155.30 C 523.53 155.33 530.64 154.24 537.62 155.20 C 550.25 161.58 562.97 168.07 574.09 176.93 C 555.45 168.36 536.48 160.38 516.53 155.30 Z" />
<path fill="#faf7f3" opacity="1.00" d=" M 312.86 161.98 C 319.34 157.71 327.07 155.08 334.93 156.49 C 327.60 158.43 320.30 160.54 312.86 161.98 Z" />
<path fill="#c7b29e" opacity="1.00" d=" M 406.94 157.96 C 472.13 150.00 541.31 162.53 595.37 201.14 C 584.96 205.04 573.03 212.08 562.20 205.80 C 518.77 191.84 475.64 176.96 432.18 163.07 C 427.77 181.40 420.62 198.86 415.04 216.82 C 421.66 219.07 428.26 221.49 435.04 223.26 C 398.54 265.48 390.83 327.47 408.61 379.39 C 417.99 405.35 434.92 430.80 461.41 441.52 C 482.40 449.16 507.48 445.33 524.22 430.18 C 533.67 425.85 543.68 422.39 552.68 416.90 C 554.54 431.80 563.53 444.30 572.29 455.96 C 546.31 470.29 516.92 479.01 487.27 480.64 C 459.36 476.07 437.65 454.61 410.11 448.62 C 388.13 445.51 368.59 468.55 346.80 456.72 C 354.65 440.74 363.59 425.11 368.86 408.03 C 382.58 415.21 401.23 407.64 409.27 395.36 C 397.21 394.63 384.89 393.43 372.96 396.02 C 377.17 374.20 378.58 350.91 371.44 329.55 C 372.05 346.10 375.90 363.43 369.34 379.40 C 348.50 449.35 274.66 490.85 261.35 564.06 C 253.87 546.39 252.49 525.99 258.79 507.76 C 270.89 467.48 302.61 437.33 331.25 408.22 C 291.78 428.49 246.68 456.84 238.65 504.12 C 226.96 494.96 226.05 475.92 233.99 463.95 C 248.60 438.61 274.94 424.03 296.34 405.31 C 267.09 415.53 235.34 428.25 216.52 454.01 C 212.35 440.73 224.71 428.29 233.82 419.81 C 261.59 395.30 301.49 378.17 313.14 340.15 C 287.43 375.85 239.64 382.39 209.87 413.23 C 197.93 407.05 188.16 397.65 178.11 388.91 C 162.62 341.32 175.71 287.39 204.68 247.55 C 263.33 201.88 332.48 167.39 406.94 157.96 M 341.67 188.41 C 343.69 203.25 365.28 197.59 374.84 196.02 C 381.03 193.99 390.77 189.55 386.04 181.38 C 372.48 172.46 352.62 177.46 341.67 188.41 M 295.42 210.53 C 305.69 212.67 315.49 208.24 322.34 200.79 C 321.08 185.63 291.79 198.43 295.42 210.53 M 380.93 198.44 C 376.61 198.93 370.36 202.96 374.17 207.75 C 382.99 212.48 396.79 213.82 404.00 205.65 C 403.50 195.39 387.57 197.96 380.93 198.44 M 338.69 205.38 C 332.59 206.73 322.18 208.73 322.00 216.62 C 329.28 224.04 343.46 219.25 349.78 212.64 C 354.46 206.07 343.17 203.32 338.69 205.38 M 381.83 437.49 C 390.64 442.70 403.12 443.01 410.94 435.82 C 416.89 428.22 417.86 418.19 418.88 408.92 C 405.66 416.39 385.64 421.05 381.83 437.49 Z" />
<path fill="#937963" opacity="1.00" d=" M 341.67 188.41 C 352.62 177.46 372.48 172.46 386.04 181.38 C 390.77 189.55 381.03 193.99 374.84 196.02 C 365.28 197.59 343.69 203.25 341.67 188.41 Z" />
<path fill="#937963" opacity="1.00" d=" M 295.42 210.53 C 291.79 198.43 321.08 185.63 322.34 200.79 C 315.49 208.24 305.69 212.67 295.42 210.53 Z" />
<path fill="#937963" opacity="1.00" d=" M 380.93 198.44 C 387.57 197.96 403.50 195.39 404.00 205.65 C 396.79 213.82 382.99 212.48 374.17 207.75 C 370.36 202.96 376.61 198.93 380.93 198.44 Z" />
<path fill="#937963" opacity="1.00" d=" M 338.69 205.38 C 343.17 203.32 354.46 206.07 349.78 212.64 C 343.46 219.25 329.28 224.04 322.00 216.62 C 322.18 208.73 332.59 206.73 338.69 205.38 Z" />
<path fill="#937963" opacity="1.00" d=" M 435.04 223.26 C 436.72 223.82 438.39 224.41 440.07 225.00 C 405.04 263.60 395.94 322.78 417.98 370.02 C 434.24 411.09 479.61 440.88 524.22 430.18 C 507.48 445.33 482.40 449.16 461.41 441.52 C 434.92 430.80 417.99 405.35 408.61 379.39 C 390.83 327.47 398.54 265.48 435.04 223.26 Z" />
<path fill="#ffffff" opacity="1.00" d=" M 459.01 238.08 C 460.35 235.56 462.88 232.97 465.92 233.16 C 502.18 244.63 537.75 259.17 574.68 267.78 C 603.65 259.82 631.70 249.01 660.56 240.73 C 685.55 268.06 690.99 308.71 682.88 343.82 C 681.24 346.55 682.46 352.92 678.03 353.34 C 645.39 356.80 613.25 364.31 582.35 375.29 C 579.18 370.07 576.04 364.84 572.79 359.67 C 560.11 379.33 545.75 401.88 521.15 407.04 C 497.31 403.79 476.07 388.95 462.94 369.06 C 436.83 330.67 436.69 278.24 459.01 238.08 M 531.40 291.35 C 520.58 307.96 520.25 333.90 535.07 348.08 C 551.86 356.48 560.62 331.14 558.95 318.38 C 554.23 317.59 549.49 316.85 544.77 316.09 C 548.11 311.07 553.33 307.19 555.84 301.67 C 555.91 289.78 539.80 279.78 531.40 291.35 M 650.47 289.98 C 639.01 305.02 637.89 329.36 650.24 344.02 C 665.28 349.28 667.60 327.62 668.37 317.25 C 664.62 316.12 660.69 315.64 656.79 315.64 C 659.60 310.94 664.01 307.16 665.83 301.93 C 664.55 294.96 659.00 285.42 650.47 289.98 Z" />
<path fill="#d0d2d3" opacity="1.00" d=" M 441.82 369.19 C 418.93 328.24 423.43 270.31 459.01 238.08 C 436.69 278.24 436.83 330.67 462.94 369.06 C 476.07 388.95 497.31 403.79 521.15 407.04 C 489.75 418.69 456.15 396.98 441.82 369.19 Z" />
<path fill="#000000" opacity="1.00" d=" M 531.40 291.35 C 539.80 279.78 555.91 289.78 555.84 301.67 C 553.33 307.19 548.11 311.07 544.77 316.09 C 549.49 316.85 554.23 317.59 558.95 318.38 C 560.62 331.14 551.86 356.48 535.07 348.08 C 520.25 333.90 520.58 307.96 531.40 291.35 Z" />
<path fill="#000000" opacity="1.00" d=" M 650.47 289.98 C 659.00 285.42 664.55 294.96 665.83 301.93 C 664.01 307.16 659.60 310.94 656.79 315.64 C 660.69 315.64 664.62 316.12 668.37 317.25 C 667.60 327.62 665.28 349.28 650.24 344.02 C 637.89 329.36 639.01 305.02 650.47 289.98 Z" />
<path fill="#faaf40" opacity="1.00" d=" M 593.39 390.38 C 639.19 372.94 688.60 368.62 736.92 364.18 C 737.84 381.61 721.02 393.29 707.13 400.13 C 672.05 416.18 632.55 418.90 594.60 420.22 C 619.92 433.87 653.44 443.17 663.31 473.57 C 668.40 486.73 666.56 501.89 663.77 515.38 C 634.75 494.65 606.86 471.46 584.54 443.47 C 577.04 433.35 568.12 421.90 569.28 408.54 C 573.11 398.54 584.30 394.51 593.39 390.38 Z" />
<path fill="#937963" opacity="1.00" d=" M 178.11 388.91 C 188.16 397.65 197.93 407.05 209.87 413.23 C 205.06 418.78 201.83 425.32 199.19 432.10 C 190.47 418.74 181.44 404.76 178.11 388.91 Z" />
<path fill="#937963" opacity="1.00" d=" M 372.96 396.02 C 384.89 393.43 397.21 394.63 409.27 395.36 C 401.23 407.64 382.58 415.21 368.86 408.03 C 370.46 404.24 371.61 400.28 372.10 396.19 L 372.96 396.02 Z" />
<path fill="#937963" opacity="1.00" d=" M 381.83 437.49 C 385.64 421.05 405.66 416.39 418.88 408.92 C 417.86 418.19 416.89 428.22 410.94 435.82 C 403.12 443.01 390.64 442.70 381.83 437.49 Z" />
<path fill="#937963" opacity="1.00" d=" M 346.80 456.72 C 368.59 468.55 388.13 445.51 410.11 448.62 C 437.65 454.61 459.36 476.07 487.27 480.64 C 516.92 479.01 546.31 470.29 572.29 455.96 C 576.87 460.99 581.33 466.14 585.28 471.69 C 505.26 516.26 407.73 518.38 319.79 500.77 C 328.33 485.81 338.03 471.55 346.80 456.72 Z" />
<path fill="#c7b29e" opacity="1.00" d=" M 385.95 531.16 C 391.32 531.05 396.70 531.01 402.08 531.02 C 398.66 541.99 393.95 552.58 392.35 564.06 C 387.94 553.68 385.69 542.46 385.95 531.16 Z" />
</svg>

